# xmcd CD database file
#
# Track frame offsets:
#	225
#	14330
#	24522
#	37005
#	48625
#	58275
#	67610
#	79140
#	95587
#	107425
#	120110
#	134535
#	143187
#	158012
#	174207
#
# Disc length: 2487 seconds
#
# Revision: 2
# Processed by: cddbd v1.4PL0 Copyright (c) Steve Scherf et al.
# Submitted via: CDex 1.50
#
DISCID=be09b40f
DTITLE=Stompin' Tom Connors - Fiddle and  Song
DYEAR=1988
DGENRE=Country
TTITLE0=Lady
TTITLE1=Fiddler's Folly
TTITLE2=It's All Over Now, Anyhow
TTITLE3=The French Song
TTITLE4=I Never Want To See The World Again
TTITLE5=Hillside Hayride
TTITLE6=Morning and Evening and Always
TTITLE7=Return of the Sea Quean
TTITLE8=Canada Day, Up Canada Way
TTITLE9=Jolly Joe MacFarland
TTITLE10=Skinner's Pond Teapot
TTITLE11=Teardrop Waltz
TTITLE12=Entry Island Home
TTITLE13=I Am The Wind
TTITLE14=Wreck of the Tammy Anne
EXTD=YEAR: 1988
EXTT0=
EXTT1=
EXTT2=
EXTT3=
EXTT4=
EXTT5=
EXTT6=
EXTT7=
EXTT8=
EXTT9=
EXTT10=
EXTT11=
EXTT12=
EXTT13=
EXTT14=
PLAYORDER=
